<svg xmlns="http://www.w3.org/2000/svg" width="40" height="40" viewBox="0 0 40 40" fill="none">
<path d="M37.6121 19.0289L33.75 20.9599L28.75 11.3846L32.6515 9.43391C32.9446 9.28735 33.2835 9.26176 33.5953 9.36266C33.9071 9.46355 34.1668 9.68286 34.3185 9.97335L38.1611 17.3323C38.238 17.4794 38.2847 17.6404 38.2987 17.8058C38.3126 17.9712 38.2935 18.1378 38.2424 18.2957C38.1913 18.4536 38.1092 18.5998 38.001 18.7257C37.8928 18.8516 37.7606 18.9546 37.6121 19.0289V19.0289Z" stroke="#5BB884" stroke-width="2" stroke-linecap="round" stroke-linejoin="round"/>
<path d="M6.24989 20.7925L2.38776 18.8614C2.23928 18.7872 2.10708 18.6841 1.99887 18.5582C1.89066 18.4323 1.8086 18.2862 1.75749 18.1282C1.70639 17.9703 1.68725 17.8037 1.7012 17.6383C1.71515 17.4729 1.76191 17.3119 1.83874 17.1648L5.68139 9.80588C5.83308 9.51538 6.09278 9.29608 6.40458 9.19518C6.71637 9.09428 7.05532 9.11987 7.34844 9.26643L11.2499 11.2172L6.24989 20.7925Z" stroke="#5BB884" stroke-width="2" stroke-linecap="round" stroke-linejoin="round"/>
<path d="M33.75 20.9599L31.25 23.8846L25.5004 29.6342C25.3478 29.7868 25.1583 29.8973 24.9502 29.9549C24.7422 30.0126 24.5228 30.0153 24.3134 29.963L15.2576 27.699C15.0878 27.6566 14.9287 27.5789 14.7908 27.4711L6.25 20.7925" stroke="#5BB884" stroke-width="2" stroke-linecap="round" stroke-linejoin="round"/>
<path d="M31.2501 23.8846L24.3751 18.8846L22.3751 20.3846C21.5096 21.0337 20.4569 21.3846 19.3751 21.3846C18.2932 21.3846 17.2405 21.0337 16.3751 20.3846L15.5281 19.7493C15.3848 19.6419 15.2663 19.5049 15.1806 19.3477C15.0949 19.1904 15.0439 19.0166 15.0312 18.838C15.0185 18.6593 15.0444 18.48 15.107 18.3122C15.1696 18.1445 15.2676 17.9921 15.3942 17.8655L21.5089 11.7507C21.625 11.6346 21.7628 11.5426 21.9145 11.4797C22.0661 11.4169 22.2287 11.3846 22.3928 11.3846H28.7501" stroke="#5BB884" stroke-width="2" stroke-linecap="round" stroke-linejoin="round"/>
<path d="M11.3398 11.2172L19.3586 8.87943C19.645 8.79592 19.9519 8.81762 20.2238 8.94063L25.6251 11.3846" stroke="#5BB884" stroke-width="2" stroke-linecap="round" stroke-linejoin="round"/>
<path d="M17.5 33.2596L12.7907 32.0823C12.5996 32.0345 12.4225 31.9423 12.2738 31.813L8.75 28.75" stroke="#5BB884" stroke-width="2" stroke-linecap="round" stroke-linejoin="round"/>
</svg>