<svg xmlns="http://www.w3.org/2000/svg" width="40" height="40" viewBox="0 0 40 40" fill="none">
<path d="M28.75 28.75H10.9091L6.55025 4.77639C6.49789 4.48838 6.3461 4.22788 6.12135 4.04031C5.8966 3.85274 5.61315 3.75 5.32042 3.75H2.5" stroke="#5BB884" stroke-width="2" stroke-linecap="round" stroke-linejoin="round"/>
<path d="M12.5 35C14.2259 35 15.625 33.6009 15.625 31.875C15.625 30.1491 14.2259 28.75 12.5 28.75C10.7741 28.75 9.375 30.1491 9.375 31.875C9.375 33.6009 10.7741 35 12.5 35Z" stroke="#5BB884" stroke-width="2" stroke-linecap="round" stroke-linejoin="round"/>
<path d="M28.75 35C30.4759 35 31.875 33.6009 31.875 31.875C31.875 30.1491 30.4759 28.75 28.75 28.75C27.0241 28.75 25.625 30.1491 25.625 31.875C25.625 33.6009 27.0241 35 28.75 35Z" stroke="#5BB884" stroke-width="2" stroke-linecap="round" stroke-linejoin="round"/>
<path d="M9.77272 22.5H29.3908C29.9763 22.5 30.5432 22.2945 30.9927 21.9194C31.4422 21.5442 31.7458 21.0232 31.8505 20.4472L33.75 10H7.5" stroke="#5BB884" stroke-width="2" stroke-linecap="round" stroke-linejoin="round"/>
</svg>