<svg xmlns="http://www.w3.org/2000/svg" width="32" height="32" viewBox="0 0 32 32" fill="none">
<path d="M21.3333 4H1.33325V21.3333H21.3333V4Z" stroke="#5BB884" stroke-width="2" stroke-linecap="round" stroke-linejoin="round"/>
<path d="M21.3333 10.6666H26.6666L30.6666 14.6666V21.3333H21.3333V10.6666Z" stroke="#5BB884" stroke-width="2" stroke-linecap="round" stroke-linejoin="round"/>
<path d="M7.33333 28C9.17428 28 10.6667 26.5077 10.6667 24.6667C10.6667 22.8258 9.17428 21.3334 7.33333 21.3334C5.49238 21.3334 4 22.8258 4 24.6667C4 26.5077 5.49238 28 7.33333 28Z" stroke="#5BB884" stroke-width="2" stroke-linecap="round" stroke-linejoin="round"/>
<path d="M24.6666 28C26.5075 28 27.9999 26.5077 27.9999 24.6667C27.9999 22.8258 26.5075 21.3334 24.6666 21.3334C22.8256 21.3334 21.3333 22.8258 21.3333 24.6667C21.3333 26.5077 22.8256 28 24.6666 28Z" stroke="#5BB884" stroke-width="2" stroke-linecap="round" stroke-linejoin="round"/>
</svg>